<?xml version="1.0" encoding="UTF-8"?>
<svg width="54px" height="54px" viewBox="0 0 54 54" version="1.1" xmlns="http://www.w3.org/2000/svg" xmlns:xlink="http://www.w3.org/1999/xlink">
    <!-- Generator: Sketch 42 (36781) - http://www.bohemiancoding.com/sketch -->
    <title>utp-delivery</title>
    <desc>Created with Sketch.</desc>
    <defs></defs>
    <g id="Главная" stroke="none" stroke-width="1" fill="none" fill-rule="evenodd">
        <g id="Desktop-HD" transform="translate(-577.000000, -521.000000)">
            <g id="utp-delivery" transform="translate(579.000000, 523.000000)">
                <ellipse id="Oval-3" stroke="white" stroke-width="4" cx="25" cy="25" rx="25" ry="25"></ellipse>
                <path d="M20.7170363,28.6287791 C19.2573929,28.6287791 18.0778044,29.8275581 18.0778044,31.3057558 C18.0778044,32.7795581 19.2573929,33.9784419 20.7170363,33.9784419 C22.1766796,33.9784419 23.3562681,32.7795581 23.3562681,31.3057558 C23.3562165,29.8275581 22.1766796,28.6287791 20.7170363,28.6287791 Z M20.7170363,32.6420988 C19.9871888,32.6420988 19.3973687,32.0404593 19.3973687,31.3056512 C19.3973687,30.566657 19.9871888,29.9693081 20.7170363,29.9693081 C21.4468321,29.9693081 22.0366522,30.566657 22.0366522,31.3056512 C22.0366005,32.0404593 21.4468321,32.6420988 20.7170363,32.6420988 Z M40.6224189,26.6514477 L40.6224189,29.5053372 C40.6224189,30.2172267 40.0525436,30.7943779 39.3494615,30.7943779 L37.987424,30.7943779 C37.7413168,29.0841686 36.2859622,27.7693314 34.5292645,27.7693314 C32.7769071,27.7693314 31.3214491,29.0842209 31.0753419,30.7943779 L24.1717855,30.7943779 C23.9256784,29.0841686 22.470272,27.7693314 20.717863,27.7693314 C18.9654539,27.7693314 17.5100476,29.0842209 17.2639921,30.7943779 L15.5582417,30.7943779 C14.8552112,30.7943779 14.285336,30.2172791 14.285336,29.5053372 L14.285336,26.6514477 L40.6224189,26.6514477 L40.6224189,26.6514477 Z M34.5326747,28.6287791 C33.0730314,28.6287791 31.8892059,29.8275581 31.8892059,31.3057558 C31.8892059,32.7795581 33.0730831,33.9784419 34.5326747,33.9784419 C35.9880294,33.9784419 37.1718549,32.7795581 37.1718549,31.3057558 C37.1718549,29.8275581 35.9880294,28.6287791 34.5326747,28.6287791 Z M34.5326747,32.6420988 C33.8028272,32.6420988 33.2130588,32.0404593 33.2130588,31.3056512 C33.2130588,30.566657 33.8028272,29.9693081 34.5326747,29.9693081 C35.2582336,29.9693081 35.8522907,30.566657 35.8522907,31.3056512 C35.8522907,32.0404593 35.2582336,32.6420988 34.5326747,32.6420988 Z M40.1208522,23.7775174 L35.1182579,18.7672907 C34.8000185,18.4493081 34.3714624,18.2688372 33.9259066,18.2688372 L31.4012802,18.2688372 L31.4012802,17.3105988 C31.4012802,16.5973488 30.8326967,16.0215581 30.1283745,16.0215581 L15.5573633,16.0215581 C14.8572264,16.0215581 14.2844576,16.5974012 14.2844576,17.3105988 L14.2844576,17.5125756 L9.11884242,18.1154709 L18.2720859,19.3225174 L9,20.2552733 L18.2394301,21.5855465 L9,22.3968023 L14.2847676,23.4061628 L14.2844059,25.9388779 L40.6215405,25.9388779 L40.6215405,24.9978023 C40.6215405,24.5380174 40.4390915,24.0997907 40.1208522,23.7775174 Z M37.939887,23.945064 L33.098505,23.945064 C32.9881883,23.945064 32.8990564,23.8548547 32.8990564,23.7431395 L32.8990564,19.9575407 C32.8990564,19.8458256 32.9881883,19.755564 33.098505,19.755564 L34.0192755,19.755564 C34.070171,19.755564 34.1211182,19.7770698 34.1593028,19.8114477 L38.0757291,23.5970465 C38.2071791,23.7216337 38.1180473,23.945064 37.939887,23.945064 Z" id="Shape" fill="white" fill-rule="nonzero"></path>
            </g>
        </g>
    </g>
</svg>