<?xml version="1.0" encoding="UTF-8"?>
<svg width="54px" height="54px" viewBox="0 0 54 54" version="1.1" xmlns="http://www.w3.org/2000/svg" xmlns:xlink="http://www.w3.org/1999/xlink">
    <!-- Generator: Sketch 42 (36781) - http://www.bohemiancoding.com/sketch -->
    <title>utp-original</title>
    <desc>Created with Sketch.</desc>
    <defs></defs>
    <g id="Главная" stroke="none" stroke-width="1" fill="none" fill-rule="evenodd">
        <g id="Desktop-HD" transform="translate(-244.000000, -520.000000)">
            <g id="utp-original" transform="translate(246.000000, 522.000000)">
                <ellipse id="Oval-3" stroke="white" stroke-width="4" cx="25" cy="25" rx="25" ry="25"></ellipse>
                <path d="M37.0895815,26.8768223 C37.6849834,26.1940205 37.9827981,25.3865604 37.9827981,24.4542711 C37.9827981,23.6088269 37.6738353,22.8772779 37.058014,22.2591116 C36.4409415,21.6410023 35.710283,21.3321185 34.865868,21.3321185 L30.3678192,21.3321185 C30.4110467,21.18041 30.454388,21.0503417 30.4976155,20.9419704 C30.5404448,20.8335991 30.600622,20.7142369 30.6760995,20.5841686 C30.7516339,20.4540433 30.8059527,20.3564351 30.8383164,20.2915148 C31.0331245,19.9231777 31.1822594,19.6194761 31.2852091,19.3812073 C31.3879882,19.1424829 31.4903122,18.817426 31.5934894,18.4055239 C31.696496,17.9938497 31.7476865,17.5817768 31.7476865,17.1698747 C31.7476865,16.9098519 31.7445582,16.6982916 31.7394391,16.53582 C31.7343769,16.3732346 31.706791,16.1292711 31.6585013,15.8040433 C31.6094722,15.4789863 31.5444035,15.2079727 31.4634088,14.991287 C31.3820728,14.7745444 31.2520491,14.530467 31.0737356,14.2596811 C30.8950241,13.9883827 30.6786022,13.7691913 30.4239581,13.601082 C30.1693709,13.4330866 29.8447096,13.2921982 29.4495761,13.1784738 C29.0540445,13.0646355 28.6077206,13.0077449 28.1094099,13.0077449 C27.8279761,13.0077449 27.584594,13.1107631 27.3786946,13.3167426 C27.1622158,13.5334852 26.9778733,13.8044419 26.8264633,14.1294989 C26.6748257,14.4547267 26.5692028,14.7365604 26.5095943,14.9751139 C26.4500427,15.2135535 26.3823007,15.5442483 26.3068232,15.9668565 C26.2090494,16.4223235 26.1363021,16.75 26.087273,16.9505125 C26.0386421,17.1510251 25.9436554,17.4138383 25.8030522,17.7389522 C25.6621647,18.0642938 25.4945444,18.3242597 25.2996225,18.5194761 C24.9424269,18.8771071 24.3957696,19.5275057 23.6594233,20.4704442 C23.1288058,21.1640661 22.5821486,21.8198178 22.0192241,22.4376993 C21.456186,23.0556948 21.0448422,23.3753986 20.785079,23.3970957 C20.5146228,23.4187358 20.28182,23.5298405 20.0868981,23.730467 C19.8919762,23.9309795 19.7945437,24.1667995 19.7945437,24.4376993 L19.7945437,34.8596811 C19.7945437,35.1415148 19.8973227,35.382574 20.1030515,35.5830866 C20.3086665,35.7838269 20.5522762,35.8894647 20.8337669,35.9003417 C21.2126331,35.9112187 22.067912,36.1494305 23.3996033,36.6159453 C24.2330977,36.8973235 24.8852642,37.1117312 25.3562164,37.2578588 C25.8270549,37.4039863 26.4851935,37.5612756 27.3289829,37.7294989 C28.1735686,37.8974374 28.9529149,37.9816629 29.6672493,37.9816629 L29.9433934,37.9816629 L31.1776523,37.9816629 L31.7621336,37.9816629 C33.2023487,37.9600228 34.2682478,37.5371298 34.9613666,36.7135535 C35.5890754,35.9655467 35.8541851,34.9845672 35.7570938,33.7705581 C36.1792445,33.369533 36.4717695,32.8603075 36.6339295,32.2423121 C36.8177033,31.581492 36.8177033,30.9473235 36.6339295,30.3404328 C37.1318421,29.6792141 37.3646449,28.9367312 37.3319399,28.1129271 C37.333305,27.7657175 37.2523103,27.3539294 37.0895815,26.8768223 Z" id="Shape" fill="white" fill-rule="nonzero"></path>
                <path d="M17.7162679,23.4136674 L13.0395076,23.4136674 C12.7578463,23.4136674 12.5142366,23.5166856 12.3085647,23.7226651 C12.1028928,23.9285308 12,24.1724374 12,24.4542711 L12,34.8604214 C12,35.1418565 12.1028928,35.385877 12.3086216,35.5920273 C12.5144641,35.7976651 12.7580738,35.9007403 13.0395645,35.9007403 L17.7162679,35.9007403 C17.9977017,35.9007403 18.2411976,35.7976651 18.4469833,35.5920273 C18.6526552,35.385877 18.7554911,35.1419134 18.7554911,34.8604214 L18.7554911,24.4542711 C18.7554911,24.1724374 18.6525983,23.9285877 18.4469833,23.7226651 C18.2412545,23.5166287 17.9977586,23.4136674 17.7162679,23.4136674 Z M15.8486693,33.5186788 C15.6429974,33.7191913 15.3994446,33.8194191 15.117954,33.8194191 C14.8255996,33.8194191 14.5792597,33.7191913 14.379105,33.5186788 C14.1788366,33.3181663 14.0787308,33.0716401 14.0787308,32.7789294 C14.0787308,32.4971526 14.1787797,32.2531891 14.379105,32.0473235 C14.5793166,31.841344 14.8255996,31.7382118 15.117954,31.7382118 C15.3994446,31.7382118 15.6429974,31.841344 15.8486693,32.0473235 C16.0543981,32.2531321 16.1572909,32.4970957 16.1572909,32.7789294 C16.1572909,33.0716401 16.0546256,33.3181093 15.8486693,33.5186788 Z" id="Shape" fill="white" fill-rule="nonzero"></path>
            </g>
        </g>
    </g>
</svg>