<?xml version="1.0" encoding="UTF-8"?>
<svg width="54px" height="54px" viewBox="0 0 54 54" version="1.1" xmlns="http://www.w3.org/2000/svg" xmlns:xlink="http://www.w3.org/1999/xlink">
    <!-- Generator: Sketch 42 (36781) - http://www.bohemiancoding.com/sketch -->
    <title>utp-garant</title>
    <desc>Created with Sketch.</desc>
    <defs></defs>
    <g id="Главная" stroke="none" stroke-width="1" fill="none" fill-rule="evenodd">
        <g id="Desktop-HD" transform="translate(-577.000000, -521.000000)">
            <g id="utp-garant" transform="translate(579.000000, 523.000000)">
                <ellipse id="Oval-3" stroke="white" stroke-width="4" cx="25" cy="25" rx="25" ry="25"></ellipse>
                <g id="badge-with-a-star" transform="translate(16.000000, 13.000000)" fill-rule="nonzero" fill="white">
                    <g id="Capa_1">
                        <g id="Group">
                            <path d="M13.4433847,17.7337938 L13.3955632,17.7337938 L12.3434644,17.6939426 L11.562407,18.4006376 C11.3179862,18.6211743 11.0018066,18.7433581 10.6723964,18.7433581 C10.4997078,18.7433581 10.3296759,18.7115037 10.170271,18.645085 L9.19524442,18.2465728 L8.22024442,18.645085 C8.06083953,18.7115037 7.89080765,18.7433581 7.71811902,18.7433581 C7.38868225,18.7433581 7.07252922,18.6211477 6.8281084,18.4006376 L6.04702444,17.6939426 L4.99495218,17.7337938 L4.94713071,17.7337938 C4.45294899,17.7337938 4.00398512,17.4628321 3.77284803,17.0244687 L3.28134963,16.0918969 L3.24149841,16.0786132 L3.24149841,24.3065887 C3.24149841,24.8007439 3.76224761,25.1221838 4.20324123,24.899017 L8.90037194,22.5398512 C9.08900106,22.446865 9.30951116,22.446865 9.49814028,22.5398512 L14.1873007,24.9017003 C14.6283209,25.124814 15.1490436,24.8033741 15.1490436,24.3092189 L15.1490436,16.0813231 L15.1091923,16.0946068 L14.6176939,17.0271254 C14.3891605,17.4628321 13.9375133,17.7337938 13.4433847,17.7337938 Z" id="Shape"></path>
                            <path d="M18.2574123,9.39426142 C18.3929065,9.17906482 18.3929065,8.90541977 18.2574123,8.68756642 L17.6968119,7.79489904 C17.6038257,7.6487779 17.5746015,7.47077577 17.6091392,7.30340064 L17.8323061,6.27258236 C17.885441,6.02284803 17.7924548,5.76514346 17.5905154,5.60839532 L16.7589532,4.96280553 C16.6234591,4.8565356 16.5331296,4.70244421 16.5092455,4.52975558 L16.3631243,3.48565356 C16.32856,3.23326249 16.1505845,3.02337938 15.9087938,2.94367694 L14.9071998,2.61955367 C14.742508,2.5664187 14.6043571,2.44952179 14.5246546,2.29808714 L14.0331562,1.36556854 C13.918916,1.1477152 13.6904357,1.01222104 13.4459883,1.01222104 L13.4221041,1.01222104 L12.3700053,1.05207226 L12.3461211,1.05207226 C12.1814028,1.05207226 12.0219979,0.990967056 11.8997875,0.879383634 L11.1187035,0.172688629 C10.9938363,0.0611052072 10.8344315,3.53949955e-17 10.6723698,3.53949955e-17 C10.5873539,3.53949955e-17 10.5023379,0.0159404888 10.4226355,0.0504782147 L9.44760893,0.448990436 C9.36790648,0.480871413 9.28291711,0.49946865 9.19790117,0.49946865 C9.11288523,0.49946865 9.02786929,0.483528162 8.94816684,0.448990436 L7.97314028,0.0504782147 C7.89078108,0.018597237 7.80576514,0 7.72343252,0 C7.56134431,0 7.40193943,0.0584484591 7.27709883,0.172688629 L6.49601488,0.879383634 C6.37380446,0.990967056 6.21439957,1.05207226 6.04968119,1.05207226 L6.02577046,1.05207226 L4.97369819,1.01222104 L4.94978746,1.01222104 C4.70536663,1.01222104 4.47688629,1.1477152 4.36264612,1.36556854 L3.87114772,2.29808714 C3.79144527,2.45217853 3.65329437,2.5664187 3.48860255,2.61955367 L2.4870085,2.94367694 C2.24521785,3.02072264 2.0672423,3.23326249 2.032678,3.48565356 L1.88655685,4.52975558 C1.86267269,4.70244421 1.77231668,4.8565356 1.6368491,4.96280553 L0.794659936,5.60839532 C0.59272051,5.76514346 0.499734325,6.02284803 0.552869288,6.27258236 L0.776036132,7.30340064 C0.813230606,7.47343252 0.781349628,7.6487779 0.688363443,7.79489904 L0.127763018,8.68756642 C-0.00773113709,8.90276302 -0.00773113709,9.17640808 0.127763018,9.39426142 L0.688363443,10.2869288 C0.781349628,10.4330499 0.810573858,10.6110521 0.776036132,10.7784272 L0.552869288,11.8092721 C0.499734325,12.0589798 0.59272051,12.3167109 0.794659936,12.4734591 L1.6262221,13.1190489 C1.76171626,13.2253188 1.8520457,13.3793836 1.87595643,13.5520723 L2.02207758,14.5962009 C2.0566153,14.8485919 2.23461743,15.058475 2.47638151,15.1381775 L3.23621148,15.3825717 L3.48063231,15.4622742 C3.64535069,15.5154091 3.78350159,15.6323061 3.86320404,15.7837407 L4.35470244,16.7162593 C4.46894261,16.9341392 4.69739639,17.0696334 4.94184378,17.0696334 L4.96575452,17.0696334 L6.01782678,17.0297821 L6.04173751,17.0297821 C6.20642933,17.0297821 6.36583422,17.0909139 6.4880712,17.2024708 L7.26912859,17.9091658 C7.39399575,18.0207758 7.55340064,18.0818544 7.71548884,18.0818544 C7.80047821,18.0818544 7.88549416,18.0659139 7.9651966,18.0313762 L8.94022317,17.632864 C9.01992561,17.6010096 9.10494155,17.5824389 9.18995749,17.5824389 C9.27494687,17.5824389 9.35996281,17.5983794 9.43966525,17.632864 L10.4146918,18.0313762 C10.497051,18.0632837 10.582067,18.0818544 10.6644261,18.0818544 C10.8264878,18.0818544 10.9858927,18.0234325 11.1107598,17.9091658 L11.8918172,17.2024708 C12.0140542,17.0909139 12.1734591,17.0297821 12.3381775,17.0297821 L12.3620616,17.0297821 L13.4141605,17.0696334 L13.4380446,17.0696334 C13.6824655,17.0696334 13.9109458,16.9341392 14.0252125,16.7162593 L14.5167109,15.7837407 C14.5964134,15.6296759 14.7345377,15.5154091 14.8992561,15.4622742 L15.1436769,15.3825717 L15.9035069,15.1381775 C16.1452976,15.0611318 16.3232997,14.8485919 16.3578374,14.5962009 L16.5039586,13.5520723 C16.5278427,13.3793836 16.6181987,13.2253188 16.7536663,13.1190489 L17.585255,12.4734591 C17.7871679,12.3167109 17.8801541,12.0589798 17.8270191,11.8092721 L17.6038523,10.7784272 C17.5666844,10.6084219 17.5985654,10.4330499 17.6915515,10.2869288 L18.2574123,9.39426142 Z M15.6192614,11.7561105 C15.4837407,12.072237 15.3296759,12.377763 15.1516472,12.6700319 C14.8647184,13.1402497 14.5219979,13.5786132 14.1261424,13.9718385 C13.4858395,14.6121148 12.7393199,15.1142402 11.9104145,15.4649044 C11.0496546,15.8289054 10.1357067,16.0121945 9.19521785,16.0121945 C8.25475558,16.0121945 7.34080765,15.828932 6.48004782,15.4649044 C5.64845909,15.1142402 4.90456961,14.6120882 4.26431987,13.9718385 C3.86849097,13.575983 3.52574389,13.1402497 3.23881509,12.6700319 C3.06081296,12.3777896 2.90403826,12.0749203 2.77120085,11.7561105 C2.40725292,10.8953241 2.22391073,9.9813762 2.22391073,9.04091392 C2.22391073,8.10042508 2.40722635,7.18650372 2.77120085,6.32571732 C3.1218916,5.49415515 3.62404357,4.75026567 4.2642933,4.10998937 C4.90454304,3.46971307 5.65111583,2.96758767 6.48002125,2.61689692 C7.34078108,2.25292242 8.25472901,2.0696068 9.19519129,2.0696068 C10.1356801,2.0696068 11.0496281,2.25292242 11.9103879,2.61689692 C12.7419501,2.96758767 13.4858395,3.46971307 14.1261158,4.10998937 C14.7663921,4.75026567 15.2685175,5.4968119 15.6192083,6.32571732 C15.9831562,7.18650372 16.1664984,8.10042508 16.1664984,9.04091392 C16.1665515,9.98140276 15.9832094,10.8953241 15.6192614,11.7561105 Z" id="Shape"></path>
                            <path d="M9.19258767,2.8639745 C5.78132306,2.8639745 3.01564825,5.62964931 3.01564825,9.04091392 C3.01564825,9.60680128 3.09269394,10.1567481 3.23615834,10.6774708 C3.95348034,13.2943677 6.34986716,15.2178799 9.19258767,15.2178799 C12.0353082,15.2178799 14.431695,13.2943943 15.149017,10.6774708 C15.2924548,10.1567481 15.3695271,9.60680128 15.3695271,9.04091392 C15.3695271,5.62964931 12.6038523,2.8639745 9.19258767,2.8639745 Z M11.942322,11.9022317 C12.0618757,12.4628055 11.4641073,12.9011424 10.9646387,12.6168969 L9.19258767,11.6126461 L7.41787991,12.6168969 C6.92106801,12.8985122 6.32064293,12.4601488 6.4401966,11.9022317 L6.8652763,9.89904357 L5.47845377,8.6477152 L5.32436238,8.50690755 C4.90193943,8.12433581 5.12510627,7.4229543 5.68831031,7.35387885 L7.70743889,7.10680128 L8.5868491,5.22316684 C8.82595643,4.7130712 9.55124867,4.7130712 9.790356,5.22316684 L10.6697396,7.10680128 L12.6888682,7.35387885 C13.2547821,7.4229543 13.4752922,8.12433581 13.0528427,8.50690755 L12.8987513,8.6477152 L11.5119288,9.89904357 L11.942322,11.9022317 Z" id="Shape"></path>
                        </g>
                    </g>
                </g>
            </g>
        </g>
    </g>
</svg>