<?xml version="1.0" encoding="UTF-8"?>
<svg width="54px" height="54px" viewBox="0 0 54 54" version="1.1" xmlns="http://www.w3.org/2000/svg" xmlns:xlink="http://www.w3.org/1999/xlink">
    <!-- Generator: Sketch 42 (36781) - http://www.bohemiancoding.com/sketch -->
    <title>utp-safe</title>
    <desc>Created with Sketch.</desc>
    <defs></defs>
    <g id="Главная" stroke="none" stroke-width="1" fill="none" fill-rule="evenodd">
        <g id="Desktop-HD" transform="translate(-918.000000, -520.000000)">
            <g id="utp-safe" transform="translate(920.000000, 522.000000)">
                <ellipse id="Oval-3" stroke="white" stroke-width="4" cx="25" cy="25" rx="25" ry="25"></ellipse>
                <path d="M26.4010656,32.7919672 C26.4010656,29.4912295 29.0768033,26.8156557 32.377377,26.8156557 C33.0721311,26.8156557 33.5216393,26.8986066 33.9928689,27.0378689 C34.3101639,27.172377 34.4315574,26.907377 34.4646721,26.7837705 C34.6805738,25.9772951 34.8016393,25.1548361 34.8016393,24.3262295 C34.8016393,24.2707377 34.7706557,17.2168033 34.7706557,17.1296721 C34.7706557,16.4340164 34.3720492,16.4356557 34.1940984,16.4365574 C32.9172131,16.442623 31.6156557,16.4431967 30.2464754,16.0485246 C27.4018852,15.2283607 24.8729508,13 23.9115574,13 C22.9803279,13 21.102623,15.2284426 18.2579508,16.0485246 C16.6538525,16.5109836 15.1155738,16.4251639 13.6764754,16.3584426 C13.507377,16.3506557 13.2381967,16.3058197 13.1527869,16.8918852 C13.1312295,17.0395902 13.0214754,24.2468852 13.0214754,24.3262295 C13.0214754,31.3670492 21.7322131,37.9804098 23.9113934,37.9804098 C24.6086885,37.9804098 25.7322131,37.4204098 27.2443443,36.295082 C27.4458197,36.1210656 27.3378689,36.0056557 27.2782787,35.9084426 C26.722377,35.0010656 26.4010656,33.9342623 26.4010656,32.7919672 Z" id="Shape" fill="white" fill-rule="nonzero"></path>
                <path d="M32.414918,35.8392623 C32.2136066,36.0562295 31.8542623,36.0898361 31.6163115,35.9138525 L27.8316393,33.1152459 C27.5937705,32.9393443 27.5446721,32.6019672 27.722623,32.3655738 L28.2082787,31.7209016 C28.3862295,31.4845082 28.7270492,31.4343443 28.9656557,31.6094262 L31.392623,33.3904098 C31.6311475,33.5654098 31.9909836,33.5311475 32.1922131,33.3140984 L35.617623,29.7286885 C35.8188525,29.5116393 36.1607377,29.4990164 36.377377,29.7006557 L36.9681148,30.2504918 C37.1847541,30.4521311 37.197377,30.7945902 36.9961475,31.0115574 L32.414918,35.8392623 Z" id="Shape" fill="white" fill-rule="nonzero"></path>
            </g>
        </g>
    </g>
</svg>